<?xml version="1.0" standalone="no"?>
<!DOCTYPE svg PUBLIC "-//W3C//DTD SVG 20010904//EN"
 "http://www.w3.org/TR/2001/REC-SVG-20010904/DTD/svg10.dtd">
<svg version="1.0" xmlns="http://www.w3.org/2000/svg"
 width="300.000000pt" height="300.000000pt" viewBox="0 0 300.000000 300.000000"
 preserveAspectRatio="xMidYMid meet">
<metadata>
Created by potrace 1.10, written by Peter Selinger 2001-2011
</metadata>
<g transform="translate(0.000000,300.000000) scale(0.100000,-0.100000)"
fill="#000000" stroke="none">
<path d="M1959 2320 c-49 -10 -47 -7 -278 -352 -72 -108 -138 -201 -145 -207
-18 -15 -17 -16 -206 269 -90 135 -172 255 -183 268 -20 21 -27 22 -179 22
-91 0 -168 -4 -179 -10 -29 -16 -23 -46 26 -120 48 -72 330 -478 412 -593 26
-37 57 -83 68 -101 l19 -34 -74 -108 c-61 -89 -184 -267 -382 -552 -13 -18
-33 -46 -45 -61 -36 -45 -72 -121 -66 -137 3 -9 17 -20 30 -25 36 -13 277 -11
308 3 28 13 58 53 270 368 148 221 162 238 181 218 7 -7 92 -132 189 -278 97
-146 188 -277 203 -293 l26 -27 154 0 c86 0 162 5 173 10 29 16 23 51 -22 121
-23 35 -44 66 -48 69 -3 3 -21 28 -40 55 -134 195 -268 388 -326 470 -8 11
-37 53 -65 92 -57 82 -57 76 12 174 18 26 69 98 112 160 82 117 100 143 220
314 154 220 172 256 139 274 -20 10 -265 19 -304 11z m-644 -328 c110 -165
204 -300 208 -301 5 -1 100 133 212 298 l203 301 164 3 165 2 -52 -75 c-29
-41 -159 -227 -289 -413 -130 -186 -236 -340 -236 -342 0 -4 169 -247 450
-648 69 -98 131 -187 139 -197 13 -20 10 -20 -155 -20 l-169 1 -170 254 c-93
140 -190 286 -215 325 -25 38 -47 70 -50 70 -3 -1 -30 -40 -62 -88 -31 -48
-128 -193 -216 -322 l-160 -235 -162 -3 c-89 -1 -160 1 -158 6 1 5 52 78 111
163 138 196 333 476 418 600 l67 96 -32 44 c-18 24 -135 193 -260 374 -126
182 -241 347 -257 367 -16 20 -29 38 -29 40 0 2 75 2 167 1 l168 -2 200 -299z"/>
</g>
</svg>
